<?xml version="1.0" encoding="utf-8"?>
<!-- Generator: Adobe Illustrator 28.3.0, SVG Export Plug-In . SVG Version: 6.00 Build 0)  -->
<svg version="1.1" id="Layer_1" xmlns="http://www.w3.org/2000/svg" xmlns:xlink="http://www.w3.org/1999/xlink" x="0px" y="0px"
	 viewBox="0 0 123.53 109.03" style="enable-background:new 0 0 123.53 109.03;" xml:space="preserve">
<style type="text/css">
	.st0{fill:#1374BA;}
	.st1{fill:#1388A4;}
</style>
<g>
	<g id="Shape_1">
		<g>
			<path class="st0" d="M121,0H12.1c-2.38,0-3.44,2.99-1.59,4.49l13.77,11.15c0.45,0.36,1.01,0.56,1.59,0.56h23.96
				c1.4,0,2.53,1.13,2.53,2.53v41.23c0,0.61,0.22,1.2,0.62,1.66l5.58,6.42c1.01,1.16,2.81,1.16,3.82,0l5.58-6.42
				c0.4-0.46,0.62-1.05,0.62-1.66V44.53c0-1.4,1.13-2.53,2.53-2.53h17.23c0.49,0,0.96-0.14,1.37-0.41l17.24-11.15
				c2.11-1.37,1.15-4.65-1.37-4.65H71.1c-1.4,0-2.53-1.13-2.53-2.53v-4.52c0-1.4,1.13-2.53,2.53-2.53h45.17
				c1.01,0,1.93-0.61,2.33-1.54l4.73-11.15C124.03,1.85,122.81,0,121,0z"/>
		</g>
	</g>
	<g id="Shape_2">
		<g>
			<path class="st1" d="M43.94,25.79H29.79c-0.57,0-1.13-0.19-1.57-0.55L4.11,6.06C2.07,4.44-0.79,6.59,0.2,9l12.96,31.43
				C13.55,41.38,14.47,42,15.5,42h28.45c1.4,0,2.53-1.13,2.53-2.53V28.32C46.47,26.92,45.34,25.79,43.94,25.79z"/>
		</g>
	</g>
	<g id="Shape_3">
		<g>
			<path class="st1" d="M103.35,39.73l-16.7,10.82c-0.41,0.27-0.74,0.65-0.94,1.09l-3.96,8.92c-0.1,0.23-0.23,0.43-0.39,0.62
				L62.39,83.23c-1.01,1.18-2.83,1.17-3.84-0.01l-11.7-13.69c-0.48-0.56-1.18-0.89-1.92-0.89H30.45c-2.15,0-3.32,2.52-1.93,4.16
				l30.03,35.33c1.01,1.18,2.83,1.19,3.84,0.01l34.15-39.81c0.18-0.21,0.32-0.44,0.42-0.69l10.09-24.85
				C107.99,40.51,105.42,38.39,103.35,39.73z"/>
		</g>
	</g>
</g>
</svg>
