<svg width="32" height="32" viewBox="0 0 32 32" fill="none" xmlns="http://www.w3.org/2000/svg">
<rect width="32" height="32" rx="8" fill="#1650bb"/>
<path d="M8 24V8h6c1.33 0 2.5.47 3.5 1.41S19 11.67 19 13c0 .83-.17 1.58-.5 2.25-.33.67-.83 1.17-1.5 1.5.67.33 1.17.83 1.5 1.5.33.67.5 1.42.5 2.25 0 1.33-.5 2.42-1.5 3.33S15.33 24 14 24H8zm3-9h3c.55 0 1.02-.2 1.41-.59.39-.39.59-.86.59-1.41s-.2-1.02-.59-1.41C14.02 10.2 13.55 10 13 10h-3v5zm0 6h3c.55 0 1.02-.2 1.41-.59.39-.39.59-.86.59-1.41s-.2-1.02-.59-1.41C14.02 16.2 13.55 16 13 16h-3v5z" fill="white"/>
</svg>
